# xmcd
#
# Track frame offsets:
#	150
#	15407
#	31071
#	47382
#	63624
#	77474
#	91700
#	103926
#	118221
#	130676
#	143270
#	156211
#	173298
#	188425
#
# Disc length: 2710 seconds
#
# Revision: 2
# Processed by: cddbd v1.5.2PL0 Copyright (c) Steve Scherf et al.
# Submitted via: EasyCDDAExtractor 11.0.0.1
#
DISCID=960a940e
DTITLE=ΡΟΥΜΕΛΙΩΤΗΣ ΔΗΜΗΤΡΗΣ - ΜΙΑ ΚΑΙΝΟΥΡΓΙΑ ΑΡΧΗ
DYEAR=2000
DGENRE=ΛΑΪΚΑ
TTITLE0=ΘΑ ΣΟΥ ΦΥΓΩ ΚΡΥΦΑ ΚΑΠΟΙΑ ΜΕΡΑ
TTITLE1=ΣΤΟ ΕΠOΜΕΝΟ ΜΠΑΡAΚΙ
TTITLE2=ΟYΤΕ EΝΑ ΒΛEΜΜΑ
TTITLE3=AΝΤΡΑΣ ΚΙ OΜΩΣ ΔΑΚΡYΖΩ
TTITLE4=ΠΕΣ ΜΟΥ ΟΤΙ ΘΑ ΕΡΧΕΣΑΙ
TTITLE5=ΠΑΓΙΔΑ ΕΡΩΤΙΚΗ
TTITLE6=ΝΑ ΗΣΟΥΝ ΕΣΥ
TTITLE7=ΑΦΟΥ ΜΠΟΡΕΙΣ ΕΣΥ
TTITLE8=ΝΟΜΙΖΑ ΠΩΣ ΧΑΝΟΜΟΥΝΑ
TTITLE9=ΗΡΘΑ ΝΑ ΣΟΥ ΠΩ ΜΙΑ ΚΑΛΗΣΠΕΡΑ
TTITLE10=ΔΥΟ ΦΟΡΕΣ ΤΟ ΙΔΙΟ ΛΑΘΟΣ
TTITLE11=Η ΑΔΙΑΦΟΡΙΑ ΣΟΥ
TTITLE12=ΚΑΙ ΣΟΥ ΦΩΝΑΖΩ
TTITLE13=ΞΕΡΕΙΣ ΤΙ ΕΙΝΑΙ ΧΩΡΙΣΜΟΣ
EXTD=
EXTT0=
EXTT1=
EXTT2=
EXTT3=
EXTT4=
EXTT5=
EXTT6=
EXTT7=
EXTT8=
EXTT9=
EXTT10=
EXTT11=
EXTT12=
EXTT13=
PLAYORDER=
